# xmcd
#
# Track frame offsets:
# 150
# 15402
# 29544
# 45785
# 65484
# 80575
# 96872
# 114078
# 129327
# 144224
#
# Disc length: 2139 seconds
#
#
# Revision: 0
# Processed by: cddbd v1.5.2PL0 Copyright (c) Steve Scherf et al.
# Submitted via: FreeRIP 2.951 
#
DISCID=6f08590a
DTITLE=Charles Valente - A cor do Rei
DYEAR=2007
DGENRE=Country
TTITLE0=Tempo
TTITLE1=Rubra
TTITLE2=Navegador
TTITLE3=Senhor da Guerra
TTITLE4=Araripe
TTITLE5=A cor do Rei
TTITLE6=Mandinga de São João
TTITLE7=Nau do Tempo
TTITLE8=Bom demais
TTITLE9=Swing Violado
EXTD=Música Raiz
EXTT0=
EXTT1=
EXTT2=
EXTT3=
EXTT4=
EXTT5=
EXTT6=
EXTT7=
EXTT8=
EXTT9=
PLAYORDER=
